 http://www.imdb.com/title/tt0335438/

Source: Starsky & Hutch (BDrip 1080p ENG-ITA-FRA-GER-Comm) x264 bluray (2004) Thanks!

Subs: Bulgarian, Danish, Dutch, English, Greek, Norwegian, Romanian, Spanish, Swedish and Vietnamese.

Sample and Screens included.

General
Complete name                            : Starsky and Hutch-720p MP4 AAC x264 BRRip 2004-CC.mp4
Format                                   : MPEG-4
Format profile                           : Base Media
Codec ID                                 : isom
File size                                : 2.74 GiB
Duration                                 : 1h 40mn
Overall bit rate mode                    : Variable
Overall bit rate                         : 3 905 Kbps
Encoded date                             : UTC 2012-09-27 14:50:11

Video
ID                                       : 1
Format                                   : AVC
Format/Info                              : Advanced Video Codec
Format profile                           : High@L3.1
Format settings, CABAC                   : Yes
Format settings, ReFrames                : 5 frames
Codec ID                                 : avc1
Codec ID/Info                            : Advanced Video Coding
Duration                                 : 1h 40mn
Bit rate                                 : 3 605 Kbps
Maximum bit rate                         : 19.8 Mbps
Width                                    : 1 280 pixels
Height                                   : 528 pixels
Display aspect ratio                     : 2.40:1
Frame rate mode                          : Variable
Frame rate                               : 23.976 fps
Minimum frame rate                       : 19.048 fps
Maximum frame rate                       : 24.390 fps
Color space                              : YUV
Chroma subsampling                       : 4:2:0
Bit depth                                : 8 bits
Scan type                                : Progressive
Bits/(Pixel*Frame)                       : 0.222
Stream size                              : 2.47 GiB (90%)
Writing library                          : x264 core 112

Audio
ID                                       : 2
Format                                   : AAC
Format/Info                              : Advanced Audio Codec
Format profile                           : LC
Codec ID                                 : 40
Duration                                 : 1h 40mn
Bit rate mode                            : Variable
Bit rate                                 : 384 Kbps
Maximum bit rate                         : 631 Kbps
Channel(s)                               : 6 channels
Channel positions                        : Front: L C R, Side: L R, LFE
Sampling rate                            : 48.0 KHz
Compression mode                         : Lossy
Delay relative to video                  : 83ms
Stream size                              : 276 MiB (10%)
Language                                 : English

Enjoy...

Requested by romeo49000.

Coming soon: Batman Begins, The Dark Knight, Taking of Pelham 123, Coffee and Cigarettes and more...